# Exported from Wings 3D 2.3
mtllib simple_human_rotated_with_texture.mtl
o Cylinder1
#24 vertices, 24 faces
v 0.50000000 2.4492936e-17 0.40000000
v 0.25000000 -0.43301270 0.40000000
v -0.25000000 -0.43301270 0.40000000
v -0.50000000 -3.6739404e-17 0.40000000
v -0.25000000 0.43301270 0.40000000
v 0.25000000 0.43301270 0.40000000
v 0.50000000 0.0000000e+0 0.0000000e+0
v 0.25000000 -0.43301270 2.6514381e-17
v -0.25000000 -0.43301270 2.6514381e-17
v -0.50000000 -6.1232340e-17 3.7493995e-33
v -0.25000000 0.43301270 -2.6514381e-17
v 0.25000000 0.43301270 -2.6514381e-17
v 0.25000000 -0.43301270 0.80000000
v 0.50000000 3.1892870e-17 0.80000000
v 0.25000000 0.43301270 0.80000000
v -0.25000000 0.43301270 0.80000000
v -0.50000000 -2.9339470e-17 0.80000000
v -0.25000000 -0.43301270 0.80000000
v 0.25000000 -0.43301270 1.00000000
v 0.50000000 2.7046337e-17 1.00000000
v 0.25000000 0.43301270 1.00000000
v -0.25000000 0.43301270 1.00000000
v -0.50000000 -3.4186003e-17 1.00000000
v -0.25000000 -0.43301270 1.00000000
vn 1.00000000 2.2434565e-16 1.4232783e-32
vn 0.50000000 -0.86602540 6.0092584e-17
vn -0.50000000 -0.86602540 5.0077153e-17
vn -1.00000000 -2.8844440e-16 -1.7790979e-33
vn -0.50000000 0.86602540 -5.0077153e-17
vn 0.50000000 0.86602540 -6.0092584e-17
vn 0.86602540 1.6367286e-16 -0.50000000
vn 0.32732684 -0.56694671 -0.75592895
vn -0.32732684 -0.56694671 -0.75592895
vn -0.86602540 -2.7755576e-16 -0.50000000
vn -0.32732684 0.56694671 -0.75592895
vn 0.32732684 0.56694671 -0.75592895
vn 0.50000000 -0.86602540 4.0061723e-17
vn 1.00000000 2.2434565e-16 -3.5581957e-33
vn 0.50000000 0.86602540 -4.0061723e-17
vn -0.50000000 0.86602540 -5.0077153e-17
vn -1.00000000 -3.2049378e-16 -1.7790979e-33
vn -0.50000000 -0.86602540 5.0077153e-17
vn 0.32732684 -0.56694671 0.75592895
vn 0.86602540 1.9428903e-16 0.50000000
vn 0.32732684 0.56694671 0.75592895
vn -0.32732684 0.56694671 0.75592895
vn -0.86602540 -3.0531133e-16 0.50000000
vn -0.32732684 -0.56694671 0.75592895
g Cylinder1_default
usemtl default
s 1
f 1//1 7//7 12//12 6//6
f 1//1 14//14 13//13 2//2
f 2//2 8//8 7//7 1//1
f 2//2 13//13 18//18 3//3
f 3//3 9//9 8//8 2//2
f 3//3 18//18 17//17 4//4
f 4//4 10//10 9//9 3//3
f 4//4 17//17 16//16 5//5
f 5//5 11//11 10//10 4//4
f 5//5 16//16 15//15 6//6
f 6//6 12//12 11//11 5//5
f 6//6 15//15 14//14 1//1
f 8//8 12//12 7//7
f 9//9 11//11 12//12 8//8
f 10//10 11//11 9//9
f 13//13 19//19 24//24 18//18
f 14//14 20//20 19//19 13//13
f 15//15 21//21 20//20 14//14
f 16//16 22//22 21//21 15//15
f 17//17 23//23 22//22 16//16
f 18//18 24//24 23//23 17//17
f 20//20 21//21 19//19
f 22//22 24//24 19//19 21//21
f 23//23 24//24 22//22
