# Exported from Wings 3D 2.3
mtllib simple_human_rotated_xaxis.mtl
o Cylinder1
#24 vertices, 44 faces
v 0.43353535 -0.24909255 0.40000000
v 1.0471968e-3 -0.49999890 0.40000000
v -0.43248815 -0.25090635 0.40000000
v -0.43353535 0.24909255 0.40000000
v -1.0471968e-3 0.49999890 0.40000000
v 0.43248815 0.25090635 0.40000000
v 0.43353535 -0.24909255 0.0000000e+0
v 1.0471968e-3 -0.49999890 2.6514381e-17
v -0.43248815 -0.25090635 2.6514381e-17
v -0.43353535 0.24909255 3.7493995e-33
v -1.0471968e-3 0.49999890 -2.6514381e-17
v 0.43248815 0.25090635 -2.6514381e-17
v 1.0471968e-3 -0.49999890 0.80000000
v 0.43353535 -0.24909255 0.80000000
v 0.43248815 0.25090635 0.80000000
v -1.0471968e-3 0.49999890 0.80000000
v -0.43353535 0.24909255 0.80000000
v -0.43248815 -0.25090635 0.80000000
v 1.0471968e-3 -0.49999890 1.00000000
v 0.43353535 -0.24909255 1.00000000
v 0.43248815 0.25090635 1.00000000
v -1.0471968e-3 0.49999890 1.00000000
v -0.43353535 0.24909255 1.00000000
v -0.43248815 -0.25090635 1.00000000
vn 0.86707070 -0.49818511 0.0000000e+0
vn 2.0943936e-3 -0.99999781 6.0092540e-17
vn -0.86497631 -0.50181270 1.2026892e-16
vn -0.86707070 0.49818511 -1.9874370e-17
vn -2.0943936e-3 0.99999781 -1.6024689e-16
vn 0.86497631 0.50181270 -4.0103749e-17
vn 0.83305458 -0.47864077 -0.27735010
vn 1.0471968e-3 -0.49999890 -0.86602540
vn -0.74909146 -0.43458255 -0.50000000
vn -0.75090525 0.43144096 -0.50000000
vn -1.5832127e-3 0.75592729 -0.65465367
vn 0.56625991 0.32851353 -0.75592895
vn 2.0943936e-3 -0.99999781 4.0061635e-17
vn 0.86707070 -0.49818511 -4.2026420e-20
vn 0.86497631 0.50181270 -8.4052839e-20
vn -2.0943936e-3 0.99999781 -4.0061723e-17
vn -0.86707070 0.49818511 8.0039698e-17
vn -0.86497631 -0.50181270 8.0123401e-17
vn 1.8137980e-3 -0.86602350 0.50000000
vn 0.75090525 -0.43144096 0.50000000
vn 0.65386063 0.37933475 0.65465367
vn -1.3711024e-3 0.65465223 0.75592895
vn -0.83305458 0.47864077 0.27735010
vn -0.43248815 -0.25090635 0.86602540
g Cylinder1_Body_face
usemtl Body_face
s 1
f 1//1 14//14 2//2
f 2//2 18//18 3//3
f 3//3 18//18 4//4
f 4//4 16//16 5//5
f 5//5 16//16 6//6
f 6//6 14//14 1//1
f 13//13 2//2 14//14
f 13//13 18//18 2//2
f 14//14 6//6 15//15
f 15//15 6//6 16//16
f 16//16 4//4 17//17
f 17//17 4//4 18//18
g Cylinder1_Feet_face
usemtl Feet_face
s 1
f 1//1 7//7 6//6
f 2//2 7//7 1//1
f 2//2 9//9 8//8
f 3//3 9//9 2//2
f 4//4 9//9 3//3
f 4//4 11//11 10//10
f 5//5 11//11 4//4
f 6//6 7//7 12//12
f 6//6 11//11 5//5
f 8//8 7//7 2//2
f 10//10 9//9 4//4
f 12//12 11//11 6//6
g Cylinder1_Head_face
usemtl Head_face
s 1
f 13//13 19//19 18//18
f 14//14 19//19 13//13
f 15//15 21//21 14//14
f 16//16 21//21 15//15
f 17//17 23//23 16//16
f 18//18 23//23 17//17
f 19//19 14//14 20//20
f 20//20 14//14 21//21
f 21//21 16//16 22//22
f 22//22 16//16 23//23
f 23//23 18//18 24//24
f 24//24 18//18 19//19
g Cylinder1_Top_face
usemtl Top_face
s 1
f 19//19 21//21 24//24
f 20//20 21//21 19//19
f 22//22 24//24 21//21
f 23//23 24//24 22//22
g Cylinder1_default
usemtl default
s 1
f 8//8 12//12 7//7
f 9//9 11//11 8//8
f 10//10 11//11 9//9
f 12//12 8//8 11//11
