# Exported from Wings 3D 2.3
mtllib simple_human_rotated_color.mtl
o Cylinder1
#24 vertices, 44 faces
v 0.50000000 2.4492936e-17 0.40000000
v 0.25000000 -0.43301270 0.40000000
v -0.25000000 -0.43301270 0.40000000
v -0.50000000 -3.6739404e-17 0.40000000
v -0.25000000 0.43301270 0.40000000
v 0.25000000 0.43301270 0.40000000
v 0.50000000 0.0000000e+0 0.0000000e+0
v 0.25000000 -0.43301270 2.6514381e-17
v -0.25000000 -0.43301270 2.6514381e-17
v -0.50000000 -6.1232340e-17 3.7493995e-33
v -0.25000000 0.43301270 -2.6514381e-17
v 0.25000000 0.43301270 -2.6514381e-17
v 0.25000000 -0.43301270 0.80000000
v 0.50000000 3.1892870e-17 0.80000000
v 0.25000000 0.43301270 0.80000000
v -0.25000000 0.43301270 0.80000000
v -0.50000000 -2.9339470e-17 0.80000000
v -0.25000000 -0.43301270 0.80000000
v 0.25000000 -0.43301270 1.00000000
v 0.50000000 2.7046337e-17 1.00000000
v 0.25000000 0.43301270 1.00000000
v -0.25000000 0.43301270 1.00000000
v -0.50000000 -3.4186003e-17 1.00000000
v -0.25000000 -0.43301270 1.00000000
vn 1.00000000 2.4037034e-16 1.4232783e-32
vn 0.50000000 -0.86602540 2.0030861e-17
vn -0.50000000 -0.86602540 2.0030861e-17
vn -1.00000000 -2.5639502e-16 -7.1163915e-33
vn -0.50000000 0.86602540 -1.0015431e-16
vn 0.50000000 0.86602540 -6.0092584e-17
vn 0.96076892 2.0014830e-16 -0.27735010
vn 0.25000000 -0.43301270 -0.86602540
vn -0.43301270 -0.75000000 -0.50000000
vn -0.86602540 -2.2204460e-16 -0.50000000
vn -0.37796447 0.65465367 -0.65465367
vn 0.32732684 0.56694671 -0.75592895
vn 0.50000000 -0.86602540 2.0030861e-17
vn 1.00000000 1.5223455e-16 -4.2698349e-32
vn 0.50000000 0.86602540 -2.0030861e-17
vn -0.50000000 0.86602540 -5.0077153e-17
vn -1.00000000 -3.5254316e-16 0.0000000e+0
vn -0.50000000 -0.86602540 1.0015431e-17
vn 0.43301270 -0.75000000 0.50000000
vn 0.86602540 -3.0531133e-16 0.50000000
vn 0.37796447 0.65465367 0.65465367
vn -0.32732684 0.56694671 0.75592895
vn -0.96076892 -2.7712842e-16 0.27735010
vn -0.25000000 -0.43301270 0.86602540
g Cylinder1_Body_face
usemtl Body_face
s 1
f 1//1 14//14 2//2
f 2//2 18//18 3//3
f 3//3 18//18 4//4
f 4//4 16//16 5//5
f 5//5 16//16 6//6
f 6//6 14//14 1//1
f 13//13 2//2 14//14
f 13//13 18//18 2//2
f 14//14 6//6 15//15
f 15//15 6//6 16//16
f 16//16 4//4 17//17
f 17//17 4//4 18//18
g Cylinder1_Feet_face
usemtl Feet_face
s 1
f 1//1 7//7 6//6
f 2//2 7//7 1//1
f 2//2 9//9 8//8
f 3//3 9//9 2//2
f 4//4 9//9 3//3
f 4//4 11//11 10//10
f 5//5 11//11 4//4
f 6//6 7//7 12//12
f 6//6 11//11 5//5
f 8//8 7//7 2//2
f 10//10 9//9 4//4
f 12//12 11//11 6//6
g Cylinder1_Head_face
usemtl Head_face
s 1
f 13//13 19//19 18//18
f 14//14 19//19 13//13
f 15//15 21//21 14//14
f 16//16 21//21 15//15
f 17//17 23//23 16//16
f 18//18 23//23 17//17
f 19//19 14//14 20//20
f 20//20 14//14 21//21
f 21//21 16//16 22//22
f 22//22 16//16 23//23
f 23//23 18//18 24//24
f 24//24 18//18 19//19
g Cylinder1_Top_face
usemtl Top_face
s 1
f 19//19 21//21 24//24
f 20//20 21//21 19//19
f 22//22 24//24 21//21
f 23//23 24//24 22//22
g Cylinder1_default
usemtl default
s 1
f 8//8 12//12 7//7
f 9//9 11//11 8//8
f 10//10 11//11 9//9
f 12//12 8//8 11//11
